PathFileType	4	(x/y/z)	S08_PSF_T13
DataRate	CameraRate	NumFrames	NumMarkers	Units	OrigDataRate	OrigDataStartFrame	OrigNumFrames
240	240	4	51	mm	240	106	422
Frame#	Time	Sternum			R.Acromium			L.Acromium			Top.Head			R.ASIS			L.ASIS			R.PSIS			L.PSIS			R.Great.Tro			L.Great.Tro			R.Iliac.Crest			L.Iliac.Crest			V.Sacral			R.Thigh.Upper.Post			R.Thigh.Lower.Ant			R.Thigh.Lower.Post			R.Thigh.Upper.Ant			R.Knee.Lat			R.Knee.Med			R.Shank.Upper.Post			R.Shank.Lower.Ant			R.Shank.Lower.Post			R.Shank.Upper.Ant			R.Ankle.Lat			R.Ankle.Med			R.Heel.Upper			R.Heel.Med			R.Heel.Lat			R.Toe.Lat			R.Toe.Med			R.Toe.Tip			L.Thigh.Upper.Post			L.Thigh.Lower.Ant			L.Thigh.Lower.Post			L.Thigh.Upper.Ant			L.Knee.Lat			L.Knee.Med			L.Shank.Upper.Post			L.Shank.Lower.Ant			L.Shank.Lower.Post			L.Shank.Upper.Ant			L.Ankle.Lat			L.Ankle.Med			L.Heel.Upper			L.Heel.Med			L.Heel.Lat			L.Toe.Lat			L.Toe.Med			L.Toe.Tip			Cervical.Spine			Back			
		X1	Y1	Z1	X2	Y2	Z2	X3	Y3	Z3	X4	Y4	Z4	X5	Y5	Z5	X6	Y6	Z6	X7	Y7	Z7	X8	Y8	Z8	X9	Y9	Z9	X10	Y10	Z10	X11	Y11	Z11	X12	Y12	Z12	X13	Y13	Z13	X14	Y14	Z14	X15	Y15	Z15	X16	Y16	Z16	X17	Y17	Z17	X18	Y18	Z18	X19	Y19	Z19	X20	Y20	Z20	X21	Y21	Z21	X22	Y22	Z22	X23	Y23	Z23	X24	Y24	Z24	X25	Y25	Z25	X26	Y26	Z26	X27	Y27	Z27	X28	Y28	Z28	X29	Y29	Z29	X30	Y30	Z30	X31	Y31	Z31	X32	Y32	Z32	X33	Y33	Z33	X34	Y34	Z34	X35	Y35	Z35	X36	Y36	Z36	X37	Y37	Z37	X38	Y38	Z38	X39	Y39	Z39	X40	Y40	Z40	X41	Y41	Z41	X42	Y42	Z42	X43	Y43	Z43	X44	Y44	Z44	X45	Y45	Z45	X46	Y46	Z46	X47	Y47	Z47	X48	Y48	Z48	X49	Y49	Z49	X50	Y50	Z50	X51	Y51	Z51	

106	0.4375	-933.49	1228	317.66	-1044.4	1470.1	493.55	-1060.1	1499.4	160.78	-1032.8	1788.4	339.17	-958.51	1019.6	425.41	-963.35	1022.2	191.51	NaN	NaN	NaN	NaN	NaN	NaN	-1011.3	912.66	498.59	-1067.7	916.6	133.19	-1052.4	1085.6	476.85	-1060	1103.4	168.69	-1180.3	1005.1	311.18	-954.88	720.04	488.17	-847.63	655.36	454.39	-915.86	638.06	468.84	-881.16	743.31	470.71	-844.43	554.17	449.16	-873.12	545.21	324.42	-889.94	366.7	461.23	-823.33	309.36	441.38	-883.26	290.09	455.94	-829.79	387.29	450.67	-867.37	120.16	424.43	-835.61	139.53	347.77	-906.6	77.848	373.68	-887.13	53.688	347.94	-899.82	54.274	408.56	NaN	NaN	NaN	-705.61	84.261	351.4	-649.75	112.05	400.52	-1106.7	721.14	147.98	-1036.7	619.13	174.79	-1103.8	630.35	167.33	-1038.4	705.22	149.79	-1108.9	521.7	193.4	-1105.6	523.41	318.55	-1199.2	353.51	196.27	-1148.8	257.46	223.29	-1212.8	284.03	212.82	-1139.8	330.05	204.55	-1226.3	108.45	240.91	-1204	110.52	325.16	-1281.8	80.958	289.38	-1271.7	45.229	317.36	-1276.2	56.834	254.21	-1101.5	40.089	218.54	-1083.2	37.855	334.13	-1017.5	51.477	284.91	-1113.2	1528.7	321.57	-1171.4	1248.3	329.18
107	0.44167	-928.2	1227.3	317.67	-1039.1	1469.4	493.61	-1054.8	1498.7	160.86	-1027.6	1787.7	339.33	-953.16	1018.9	425.42	-958.17	1021.5	191.49	-1158.4	1040.9	357.75	NaN	NaN	NaN	-1006.1	911.95	498.71	-1062.8	916.09	133.22	-1047.1	1084.9	476.94	-1054.8	1102.8	168.77	-1174.9	1004.5	311.34	-950.62	718.9	488.47	-843.58	654.01	454.58	-911.83	636.86	469.1	-876.89	742.02	470.93	-840.03	553.11	449.19	-869.02	543.88	324.49	-881.41	364.82	461.2	-813.56	309.07	441.06	-872.98	288.42	455.8	-821.79	386.83	450.5	-852.9	118.72	423.92	-821.76	138.91	347.14	-891.19	75.505	373.2	-871.31	51.789	347.41	-883.76	52.053	408.04	NaN	NaN	NaN	-690.56	86.828	350.22	-635.11	115.92	399.11	-1103	721.09	148.01	-1033.5	618.67	174.76	-1100.4	630.37	167.18	-1034.9	704.76	149.77	-1106.5	521.59	193.4	-1103	523.27	318.56	-1198	353.75	196.5	-1147.8	257.55	223.31	-1211.8	284.35	213	-1138.5	330.07	204.64	-1226.1	108.9	241.17	-1203.7	110.82	325.32	-1281.6	81.347	289.61	-1271.5	45.587	317.57	-1276.1	57.251	254.42	-1101.5	40.074	218.58	-1083.1	37.78	334.15	-1017.4	51.244	284.93	-1108	1528	321.63	-1165.9	1247.5	329.21
108	0.44583	-922.89	1226.6	317.7	-1033.8	1468.7	493.69	-1049.4	1498	160.96	-1022.4	1787	339.5	-947.79	1018.2	425.43	-952.96	1020.8	191.48	-1153.6	1040.3	357.88	-1151.1	1046.3	264.62	-1000.9	911.21	498.83	-1057.9	915.57	133.23	-1041.7	1084.2	477.03	-1049.6	1102.1	168.85	-1169.4	1003.8	311.5	-946.37	717.73	488.78	-839.55	652.61	454.76	-907.83	635.63	469.36	-872.63	740.68	471.18	-835.68	552	449.23	-864.98	542.52	324.56	-872.99	362.99	461.17	-803.95	308.85	440.74	-862.85	286.83	455.67	-813.91	386.4	450.32	-838.65	117.47	423.41	-808.15	138.44	346.51	-876.01	73.381	372.72	-855.74	50.12	346.86	-867.93	50.059	407.52	NaN	NaN	NaN	-675.84	89.498	349.06	-620.8	119.85	397.73	-1099.4	721.01	148.05	-1030.3	618.21	174.75	-1097	630.37	167.04	-1031.2	704.28	149.76	-1104	521.47	193.39	-1100.4	523.13	318.58	-1196.8	353.99	196.75	-1146.8	257.65	223.33	-1210.8	284.67	213.19	-1137.2	330.08	204.73	-1225.9	109.36	241.43	-1203.3	111.14	325.47	-1281.4	81.773	289.81	-1271.3	45.987	317.77	-1275.9	57.704	254.62	-1101.5	40.054	218.63	-1083	37.712	334.16	-1017.2	51.004	284.95	-1102.8	1527.3	321.69	-1160.5	1246.7	329.25
109	0.45	-917.57	1225.8	317.73	-1028.5	1467.9	493.79	-1044.1	1497.3	161.07	-1017.1	1786.3	339.68	-942.39	1017.5	425.45	-947.72	1020	191.47	-1148.6	1039.6	358.02	-1146.3	1045.7	264.75	-995.7	910.46	498.96	-1053	915.04	133.24	-1036.4	1083.5	477.12	-1044.4	1101.4	168.93	-1164	1003.2	311.67	-942.11	716.52	489.1	-835.54	651.16	454.94	-903.85	634.35	469.61	-868.36	739.3	471.45	-831.37	550.86	449.26	-860.99	541.12	324.61	-864.68	361.22	461.13	-794.52	308.69	440.43	-852.89	285.33	455.52	-806.17	385.99	450.15	-824.64	116.39	422.9	-794.79	138.12	345.89	-861.08	71.469	372.24	-840.43	48.669	346.29	-852.37	48.281	406.98	NaN	NaN	NaN	-661.47	92.254	347.91	-606.86	123.83	396.37	-1095.7	720.9	148.11	-1027.1	617.74	174.76	-1093.5	630.36	166.91	-1027.5	703.8	149.76	-1101.5	521.35	193.39	-1097.7	522.99	318.61	-1195.5	354.24	197	-1145.8	257.76	223.35	-1209.8	285	213.4	-1135.9	330.1	204.83	-1225.7	109.85	241.66	-1202.9	111.48	325.6	-1281.2	82.239	290	-1271.2	46.432	317.96	-1275.8	58.192	254.81	-1101.5	40.029	218.67	-1082.9	37.652	334.16	-1017.1	50.757	284.97	-1097.5	1526.6	321.77	-1155	1245.9	329.31
